<?xml version="1.0" encoding="UTF-8"?>
<!DOCTYPE svg PUBLIC "-//W3C//DTD SVG 1.1//EN" "http://www.w3.org/Graphics/SVG/1.1/DTD/svg11.dtd">
<!-- Creator: CorelDRAW 2019 (64 Bit) -->
<svg xmlns="http://www.w3.org/2000/svg" xml:space="preserve" width="210mm" height="297mm" version="1.1" style="shape-rendering:geometricPrecision; text-rendering:geometricPrecision; image-rendering:optimizeQuality; fill-rule:evenodd; clip-rule:evenodd"
viewBox="0 0 21000 29700"
 xmlns:xlink="http://www.w3.org/1999/xlink">
 <defs>
  <style type="text/css">
   <![CDATA[
    .fil0 {fill:black}
   ]]>
  </style>
 </defs>
 <g id="Camada_x0020_1">
  <metadata id="CorelCorpID_0Corel-Layer"/>
  <path class="fil0" d="M9740.26 23881.63c-1555.53,0 -2822.22,-1265.87 -2822.22,-2822.22 0,-311.57 252.87,-564.44 564.44,-564.44 311.57,0 564.44,252.87 564.44,564.44 0,934.03 760.13,1693.33 1693.33,1693.33 933.19,0 1693.32,-759.3 1693.32,-1693.33 0,-311.57 252.87,-564.44 564.44,-564.44 311.57,0 564.44,252.87 564.44,564.44 0,1556.36 -1266.55,2822.22 -2822.21,2822.22l0.02 0zm0 0z"/>
  <path class="fil0" d="M15949.14 21623.85l-12417.77 0c-726.23,0 -1316.99,-590.76 -1316.99,-1316.99 0,-385.44 167.85,-750.34 460.54,-1001.01 18.88,-16.54 39.14,-31.56 60.22,-45.2 1104.77,-964.08 1737.02,-2351.07 1737.02,-3815.65l0 -2099.71c0,-2904.9 2363.89,-5268.1 5268.1,-5268.1 120.44,0 250.67,2.2 371.11,22.6 307.72,51.13 515.51,342.44 464.26,649.47 -51.13,307.03 -347.68,514.84 -649.47,463.57 -60.22,-9.78 -126.37,-6.75 -185.9,-6.75 -2281.76,0 -4139.21,1856.63 -4139.21,4139.21l0 2099.71c0,1818.32 -797.06,3538.8 -2184.74,4719.5 -11.3,9.1 -21.08,17.36 -33.21,25.63 -20.26,25.63 -39.83,64.77 -39.83,116.72 0,102.25 85.85,188.1 188.1,188.1l12417.77 0.01c102.39,0 188.24,-85.85 188.24,-188.1 0,-52.78 -19.57,-91.09 -40.65,-116.72 -11.3,-8.27 -21.08,-16.54 -32.38,-25.63 -1388.51,-1181.53 -2184.74,-2901.18 -2184.74,-4719.5l0 -820.21c0,-311.57 252.87,-564.43 564.44,-564.43 311.57,0 564.44,252.86 564.44,564.43l0 820.21c0,1465.41 632.93,2853.09 1739.22,3817.99 20.26,13.5 39.83,27.84 57.88,43.68 292.83,249.84 460.68,614.74 460.68,1000.18 0,726.23 -590.76,1316.99 -1317.13,1316.99zm0 0z"/>
  <path class="fil0" d="M17257.21 20168.14c-40.82,-322.83 -199.79,-620.7 -450.07,-835.05 -18.88,-16.54 -39.14,-31.56 -60.22,-45.2 -1104.77,-964.08 -1737.02,-2351.07 -1737.02,-3815.65l0 -2099.71c0,-2904.9 -2363.89,-5268.1 -5268.1,-5268.1 -120.44,0 -250.67,2.2 -371.11,22.6 -220.28,36.6 -389.34,196.29 -448.83,396.71l0 319.61c79.92,269.68 354.72,444.17 634.04,396.72 60.22,-9.78 126.37,-6.75 185.9,-6.75 2281.76,0 4139.21,1856.63 4139.21,4139.21l0 2099.71c0,1806.29 786.65,3515.93 2157.38,4695.9l1218.82 0z"/>
 </g>
</svg>
